<svg width="192" height="57" viewBox="0 0 192 57" fill="none" xmlns="http://www.w3.org/2000/svg">
<line opacity="0.5" x1="65" y1="56.5" x2="147" y2="56.5" stroke="#2D3440"/>
<path d="M8.07955 47H7.02273C6.96023 46.696 6.85085 46.429 6.6946 46.1989C6.54119 45.9688 6.35369 45.7756 6.1321 45.6193C5.91335 45.4602 5.67045 45.3409 5.40341 45.2614C5.13636 45.1818 4.85795 45.142 4.56818 45.142C4.03977 45.142 3.56108 45.2756 3.1321 45.5426C2.70597 45.8097 2.36648 46.2031 2.11364 46.723C1.86364 47.2429 1.73864 47.8807 1.73864 48.6364C1.73864 49.392 1.86364 50.0298 2.11364 50.5497C2.36648 51.0696 2.70597 51.4631 3.1321 51.7301C3.56108 51.9972 4.03977 52.1307 4.56818 52.1307C4.85795 52.1307 5.13636 52.0909 5.40341 52.0114C5.67045 51.9318 5.91335 51.8139 6.1321 51.6577C6.35369 51.4986 6.54119 51.304 6.6946 51.0739C6.85085 50.8409 6.96023 50.5739 7.02273 50.2727H8.07955C8 50.7187 7.85511 51.1179 7.64489 51.4702C7.43466 51.8224 7.1733 52.1222 6.8608 52.3693C6.5483 52.6136 6.19744 52.7997 5.80824 52.9276C5.42188 53.0554 5.00852 53.1193 4.56818 53.1193C3.82386 53.1193 3.16193 52.9375 2.58239 52.5739C2.00284 52.2102 1.54688 51.6932 1.21449 51.0227C0.882102 50.3523 0.715909 49.5568 0.715909 48.6364C0.715909 47.7159 0.882102 46.9205 1.21449 46.25C1.54688 45.5795 2.00284 45.0625 2.58239 44.6989C3.16193 44.3352 3.82386 44.1534 4.56818 44.1534C5.00852 44.1534 5.42188 44.2173 5.80824 44.3452C6.19744 44.473 6.5483 44.6605 6.8608 44.9077C7.1733 45.152 7.43466 45.4503 7.64489 45.8026C7.85511 46.152 8 46.5511 8.07955 47ZM8.95206 54.875V52.0625H9.49751C9.63104 51.9233 9.74609 51.7727 9.84268 51.6108C9.93928 51.4489 10.0231 51.2571 10.0941 51.0355C10.168 50.8111 10.2305 50.5384 10.2816 50.2173C10.3327 49.8935 10.3782 49.5028 10.418 49.0455L10.6396 46.4545H14.7987V52.0625H15.8043V54.875H14.7987V53H9.95774V54.875H8.95206ZM10.6396 52.0625H13.793V47.392H11.5771L11.4066 49.0455C11.3356 49.7301 11.2475 50.3281 11.1424 50.8395C11.0373 51.3509 10.8697 51.7585 10.6396 52.0625ZM19.8835 53.1364C19.2528 53.1364 18.7088 52.9972 18.2514 52.7188C17.7969 52.4375 17.446 52.0455 17.1989 51.5426C16.9545 51.0369 16.8324 50.4489 16.8324 49.7784C16.8324 49.108 16.9545 48.517 17.1989 48.0057C17.446 47.4915 17.7898 47.0909 18.2301 46.804C18.6733 46.5142 19.1903 46.3693 19.7812 46.3693C20.1222 46.3693 20.4588 46.4261 20.7912 46.5398C21.1236 46.6534 21.4261 46.8381 21.6989 47.0938C21.9716 47.3466 22.1889 47.6818 22.3509 48.0994C22.5128 48.517 22.5938 49.0312 22.5938 49.642V50.0682H17.5483V49.1989H21.571C21.571 48.8295 21.4972 48.5 21.3494 48.2102C21.2045 47.9205 20.9972 47.6918 20.7273 47.5241C20.4602 47.3565 20.1449 47.2727 19.7812 47.2727C19.3807 47.2727 19.0341 47.3722 18.7415 47.571C18.4517 47.767 18.2287 48.0227 18.0724 48.3381C17.9162 48.6534 17.8381 48.9915 17.8381 49.3523V49.9318C17.8381 50.4261 17.9233 50.8452 18.0938 51.1889C18.267 51.5298 18.5071 51.7898 18.8139 51.9688C19.1207 52.1449 19.4773 52.233 19.8835 52.233C20.1477 52.233 20.3864 52.196 20.5994 52.1222C20.8153 52.0455 21.0014 51.9318 21.1577 51.7812C21.3139 51.6278 21.4347 51.4375 21.5199 51.2102L22.4915 51.483C22.3892 51.8125 22.2173 52.1023 21.9759 52.3523C21.7344 52.5994 21.4361 52.7926 21.081 52.9318C20.7259 53.0682 20.3267 53.1364 19.8835 53.1364ZM23.544 53V52.0625H23.7827C23.9787 52.0625 24.142 52.0241 24.2727 51.9474C24.4034 51.8679 24.5085 51.7301 24.5881 51.5341C24.6705 51.3352 24.733 51.0597 24.7756 50.7074C24.821 50.3523 24.8537 49.9006 24.8736 49.3523L24.9929 46.4545H29.3565V53H28.3509V47.392H25.9474L25.8452 49.7273C25.8224 50.2642 25.7741 50.7372 25.7003 51.1463C25.6293 51.5526 25.5199 51.8935 25.3722 52.169C25.2273 52.4446 25.0341 52.652 24.7926 52.7912C24.5511 52.9304 24.2486 53 23.8849 53H23.544ZM33.1278 53.1534C32.7131 53.1534 32.3366 53.0753 31.9986 52.919C31.6605 52.7599 31.392 52.5312 31.1932 52.233C30.9943 51.9318 30.8949 51.5682 30.8949 51.142C30.8949 50.767 30.9688 50.4631 31.1165 50.2301C31.2642 49.9943 31.4616 49.8097 31.7088 49.6761C31.956 49.5426 32.2287 49.4432 32.527 49.3778C32.8281 49.3097 33.1307 49.2557 33.4347 49.2159C33.8324 49.1648 34.1548 49.1264 34.402 49.1009C34.652 49.0724 34.8338 49.0256 34.9474 48.9602C35.0639 48.8949 35.1222 48.7812 35.1222 48.6193V48.5852C35.1222 48.1648 35.0071 47.8381 34.777 47.6051C34.5497 47.3722 34.2045 47.2557 33.7415 47.2557C33.2614 47.2557 32.8849 47.3608 32.6122 47.571C32.3395 47.7812 32.1477 48.0057 32.0369 48.2443L31.0824 47.9034C31.2528 47.5057 31.4801 47.196 31.7642 46.9744C32.0511 46.75 32.3636 46.5937 32.7017 46.5057C33.0426 46.4148 33.3778 46.3693 33.7074 46.3693C33.9176 46.3693 34.1591 46.3949 34.4318 46.446C34.7074 46.4943 34.973 46.5952 35.2287 46.7486C35.4872 46.902 35.7017 47.1335 35.8722 47.4432C36.0426 47.7528 36.1278 48.1676 36.1278 48.6875V53H35.1222V52.1136H35.071C35.0028 52.2557 34.8892 52.4077 34.7301 52.5696C34.571 52.7315 34.3594 52.8693 34.0952 52.983C33.831 53.0966 33.5085 53.1534 33.1278 53.1534ZM33.2812 52.25C33.679 52.25 34.0142 52.1719 34.2869 52.0156C34.5625 51.8594 34.7699 51.6577 34.9091 51.4105C35.0511 51.1634 35.1222 50.9034 35.1222 50.6307V49.7102C35.0795 49.7614 34.9858 49.8082 34.8409 49.8509C34.6989 49.8906 34.5341 49.9261 34.3466 49.9574C34.1619 49.9858 33.9815 50.0114 33.8054 50.0341C33.6321 50.054 33.4915 50.071 33.3835 50.0852C33.1222 50.1193 32.8778 50.1747 32.6506 50.2514C32.4261 50.3253 32.2443 50.4375 32.1051 50.5881C31.9688 50.7358 31.9006 50.9375 31.9006 51.1932C31.9006 51.5426 32.0298 51.8068 32.2884 51.9858C32.5497 52.1619 32.8807 52.25 33.2812 52.25ZM42.3441 49.267V50.2045H38.7305V49.267H42.3441ZM38.9691 46.4545V53H37.9634V46.4545H38.9691ZM43.1112 46.4545V53H42.1055V46.4545H43.1112ZM47.6069 53.1364C47.016 53.1364 46.4975 52.9957 46.0515 52.7145C45.6083 52.4332 45.2617 52.0398 45.0117 51.5341C44.7646 51.0284 44.641 50.4375 44.641 49.7614C44.641 49.0795 44.7646 48.4844 45.0117 47.9759C45.2617 47.4673 45.6083 47.0724 46.0515 46.7912C46.4975 46.5099 47.016 46.3693 47.6069 46.3693C48.1978 46.3693 48.7148 46.5099 49.158 46.7912C49.604 47.0724 49.9506 47.4673 50.1978 47.9759C50.4478 48.4844 50.5728 49.0795 50.5728 49.7614C50.5728 50.4375 50.4478 51.0284 50.1978 51.5341C49.9506 52.0398 49.604 52.4332 49.158 52.7145C48.7148 52.9957 48.1978 53.1364 47.6069 53.1364ZM47.6069 52.233C48.0558 52.233 48.4251 52.1179 48.7148 51.8878C49.0046 51.6577 49.2191 51.3551 49.3583 50.9801C49.4975 50.6051 49.5671 50.1989 49.5671 49.7614C49.5671 49.3239 49.4975 48.9162 49.3583 48.5384C49.2191 48.1605 49.0046 47.8551 48.7148 47.6222C48.4251 47.3892 48.0558 47.2727 47.6069 47.2727C47.158 47.2727 46.7887 47.3892 46.4989 47.6222C46.2092 47.8551 45.9947 48.1605 45.8555 48.5384C45.7163 48.9162 45.6467 49.3239 45.6467 49.7614C45.6467 50.1989 45.7163 50.6051 45.8555 50.9801C45.9947 51.3551 46.2092 51.6577 46.4989 51.8878C46.7887 52.1179 47.158 52.233 47.6069 52.233ZM55.483 53V46.4545H58.1591C58.8636 46.4545 59.4233 46.6136 59.8381 46.9318C60.2528 47.25 60.4602 47.6705 60.4602 48.1932C60.4602 48.5909 60.3423 48.8991 60.1065 49.1179C59.8707 49.3338 59.5682 49.4801 59.1989 49.5568C59.4403 49.5909 59.6747 49.6761 59.902 49.8125C60.1321 49.9489 60.3224 50.1364 60.473 50.375C60.6236 50.6108 60.6989 50.9006 60.6989 51.2443C60.6989 51.5795 60.6136 51.8793 60.4432 52.1435C60.2727 52.4077 60.0284 52.6165 59.7102 52.7699C59.392 52.9233 59.0114 53 58.5682 53H55.483ZM56.4375 52.0795H58.5682C58.9148 52.0795 59.1861 51.9972 59.3821 51.8324C59.5781 51.6676 59.6761 51.4432 59.6761 51.1591C59.6761 50.821 59.5781 50.5554 59.3821 50.3622C59.1861 50.1662 58.9148 50.0682 58.5682 50.0682H56.4375V52.0795ZM56.4375 49.1989H58.1591C58.429 49.1989 58.6605 49.1619 58.8537 49.0881C59.0469 49.0114 59.1946 48.9034 59.2969 48.7642C59.402 48.6222 59.4545 48.4545 59.4545 48.2614C59.4545 47.9858 59.3395 47.7699 59.1094 47.6136C58.8793 47.4545 58.5625 47.375 58.1591 47.375H56.4375V49.1989ZM66.3292 53.0682C66.119 53.0682 65.9386 52.9929 65.788 52.8423C65.6374 52.6918 65.5621 52.5114 65.5621 52.3011C65.5621 52.0909 65.6374 51.9105 65.788 51.7599C65.9386 51.6094 66.119 51.5341 66.3292 51.5341C66.5394 51.5341 66.7198 51.6094 66.8704 51.7599C67.021 51.9105 67.0962 52.0909 67.0962 52.3011C67.0962 52.4403 67.0607 52.5682 66.9897 52.6847C66.9215 52.8011 66.8292 52.8949 66.7127 52.9659C66.5991 53.0341 66.4712 53.0682 66.3292 53.0682ZM69.9066 49.0625V53H68.9009V44.2727H69.9066V47.4773H69.9918C70.1452 47.1392 70.3754 46.8707 70.6822 46.6719C70.9918 46.4702 71.4038 46.3693 71.918 46.3693C72.364 46.3693 72.7546 46.4588 73.0898 46.6378C73.4251 46.8139 73.685 47.0852 73.8697 47.4517C74.0572 47.8153 74.1509 48.2784 74.1509 48.8409V53H73.1452V48.9091C73.1452 48.3892 73.0103 47.9872 72.7404 47.7031C72.4734 47.4162 72.1026 47.2727 71.6282 47.2727C71.2987 47.2727 71.0032 47.3423 70.7418 47.4815C70.4833 47.6207 70.2788 47.8239 70.1282 48.0909C69.9805 48.358 69.9066 48.6818 69.9066 49.0625ZM78.8374 46.4545V47.3068H75.4453V46.4545H78.8374ZM76.4339 44.8864H77.4396V51.125C77.4396 51.4091 77.4808 51.6222 77.5632 51.7642C77.6484 51.9034 77.7564 51.9972 77.8871 52.0455C78.0206 52.0909 78.1612 52.1136 78.3089 52.1136C78.4197 52.1136 78.5107 52.108 78.5817 52.0966C78.6527 52.0824 78.7095 52.071 78.7521 52.0625L78.9567 52.9659C78.8885 52.9915 78.7933 53.017 78.6712 53.0426C78.549 53.071 78.3942 53.0852 78.2067 53.0852C77.9226 53.0852 77.6442 53.0241 77.3714 52.902C77.1016 52.7798 76.8771 52.5938 76.6982 52.3438C76.522 52.0938 76.4339 51.7784 76.4339 51.3977V44.8864ZM80.3501 53V46.4545H81.3217V47.4773H81.407C81.5433 47.1278 81.7635 46.8565 82.0675 46.6634C82.3714 46.4673 82.7365 46.3693 83.1626 46.3693C83.5945 46.3693 83.9538 46.4673 84.2408 46.6634C84.5305 46.8565 84.7564 47.1278 84.9183 47.4773H84.9865C85.1541 47.1392 85.4055 46.8707 85.7408 46.6719C86.076 46.4702 86.478 46.3693 86.9467 46.3693C87.532 46.3693 88.0107 46.5526 88.3828 46.919C88.755 47.2827 88.9411 47.8494 88.9411 48.6193V53H87.9354V48.6193C87.9354 48.1364 87.8033 47.7912 87.5391 47.5838C87.2749 47.3764 86.9638 47.2727 86.6058 47.2727C86.1456 47.2727 85.7891 47.4119 85.5362 47.6903C85.2834 47.9659 85.157 48.3153 85.157 48.7386V53H84.1342V48.517C84.1342 48.1449 84.0135 47.8452 83.772 47.6179C83.5305 47.3878 83.2195 47.2727 82.8388 47.2727C82.5774 47.2727 82.3331 47.3423 82.1058 47.4815C81.8814 47.6207 81.6996 47.8139 81.5604 48.0611C81.424 48.3054 81.3558 48.5881 81.3558 48.9091V53H80.3501ZM91.7855 44.2727V53H90.7798V44.2727H91.7855ZM98.9286 53.1534C98.5138 53.1534 98.1374 53.0753 97.7994 52.919C97.4613 52.7599 97.1928 52.5312 96.994 52.233C96.7951 51.9318 96.6957 51.5682 96.6957 51.142C96.6957 50.767 96.7695 50.4631 96.9173 50.2301C97.065 49.9943 97.2624 49.8097 97.5096 49.6761C97.7567 49.5426 98.0295 49.4432 98.3278 49.3778C98.6289 49.3097 98.9315 49.2557 99.2354 49.2159C99.6332 49.1648 99.9556 49.1264 100.203 49.1009C100.453 49.0724 100.635 49.0256 100.748 48.9602C100.865 48.8949 100.923 48.7812 100.923 48.6193V48.5852C100.923 48.1648 100.808 47.8381 100.578 47.6051C100.35 47.3722 100.005 47.2557 99.5423 47.2557C99.0621 47.2557 98.6857 47.3608 98.413 47.571C98.1403 47.7812 97.9485 48.0057 97.8377 48.2443L96.8832 47.9034C97.0536 47.5057 97.2809 47.196 97.565 46.9744C97.8519 46.75 98.1644 46.5937 98.5025 46.5057C98.8434 46.4148 99.1786 46.3693 99.5082 46.3693C99.7184 46.3693 99.9599 46.3949 100.233 46.446C100.508 46.4943 100.774 46.5952 101.029 46.7486C101.288 46.902 101.502 47.1335 101.673 47.4432C101.843 47.7528 101.929 48.1676 101.929 48.6875V53H100.923V52.1136H100.872C100.804 52.2557 100.69 52.4077 100.531 52.5696C100.372 52.7315 100.16 52.8693 99.896 52.983C99.6317 53.0966 99.3093 53.1534 98.9286 53.1534ZM99.082 52.25C99.4798 52.25 99.815 52.1719 100.088 52.0156C100.363 51.8594 100.571 51.6577 100.71 51.4105C100.852 51.1634 100.923 50.9034 100.923 50.6307V49.7102C100.88 49.7614 100.787 49.8082 100.642 49.8509C100.5 49.8906 100.335 49.9261 100.147 49.9574C99.9627 49.9858 99.7823 50.0114 99.6062 50.0341C99.4329 50.054 99.2923 50.071 99.1843 50.0852C98.9229 50.1193 98.6786 50.1747 98.4513 50.2514C98.2269 50.3253 98.0451 50.4375 97.9059 50.5881C97.7695 50.7358 97.7013 50.9375 97.7013 51.1932C97.7013 51.5426 97.8306 51.8068 98.0891 51.9858C98.3505 52.1619 98.6815 52.25 99.082 52.25ZM106.423 53.1364C105.81 53.1364 105.281 52.9915 104.838 52.7017C104.395 52.4119 104.054 52.0128 103.815 51.5043C103.577 50.9957 103.457 50.4148 103.457 49.7614C103.457 49.0966 103.58 48.5099 103.824 48.0014C104.071 47.4901 104.415 47.0909 104.855 46.804C105.298 46.5142 105.815 46.3693 106.406 46.3693C106.866 46.3693 107.281 46.4545 107.651 46.625C108.02 46.7955 108.322 47.0341 108.558 47.3409C108.794 47.6477 108.94 48.0057 108.997 48.4148H107.991C107.915 48.1165 107.744 47.8523 107.48 47.6222C107.219 47.3892 106.866 47.2727 106.423 47.2727C106.031 47.2727 105.688 47.375 105.392 47.5795C105.099 47.7812 104.871 48.0668 104.706 48.4361C104.544 48.8026 104.463 49.233 104.463 49.7273C104.463 50.233 104.543 50.6733 104.702 51.0483C104.864 51.4233 105.091 51.7145 105.384 51.9219C105.679 52.1293 106.026 52.233 106.423 52.233C106.685 52.233 106.922 52.1875 107.135 52.0966C107.348 52.0057 107.528 51.875 107.676 51.7045C107.824 51.5341 107.929 51.3295 107.991 51.0909H108.997C108.94 51.4773 108.8 51.8253 108.575 52.1349C108.354 52.4418 108.06 52.6861 107.693 52.8679C107.33 53.0469 106.906 53.1364 106.423 53.1364ZM112.393 53.1534C111.979 53.1534 111.602 53.0753 111.264 52.919C110.926 52.7599 110.658 52.5312 110.459 52.233C110.26 51.9318 110.161 51.5682 110.161 51.142C110.161 50.767 110.234 50.4631 110.382 50.2301C110.53 49.9943 110.727 49.8097 110.974 49.6761C111.222 49.5426 111.494 49.4432 111.793 49.3778C112.094 49.3097 112.396 49.2557 112.7 49.2159C113.098 49.1648 113.42 49.1264 113.668 49.1009C113.918 49.0724 114.099 49.0256 114.213 48.9602C114.33 48.8949 114.388 48.7812 114.388 48.6193V48.5852C114.388 48.1648 114.273 47.8381 114.043 47.6051C113.815 47.3722 113.47 47.2557 113.007 47.2557C112.527 47.2557 112.151 47.3608 111.878 47.571C111.605 47.7812 111.413 48.0057 111.303 48.2443L110.348 47.9034C110.518 47.5057 110.746 47.196 111.03 46.9744C111.317 46.75 111.629 46.5937 111.967 46.5057C112.308 46.4148 112.643 46.3693 112.973 46.3693C113.183 46.3693 113.425 46.3949 113.697 46.446C113.973 46.4943 114.239 46.5952 114.494 46.7486C114.753 46.902 114.967 47.1335 115.138 47.4432C115.308 47.7528 115.393 48.1676 115.393 48.6875V53H114.388V52.1136H114.337C114.268 52.2557 114.155 52.4077 113.996 52.5696C113.837 52.7315 113.625 52.8693 113.361 52.983C113.097 53.0966 112.774 53.1534 112.393 53.1534ZM112.547 52.25C112.945 52.25 113.28 52.1719 113.553 52.0156C113.828 51.8594 114.036 51.6577 114.175 51.4105C114.317 51.1634 114.388 50.9034 114.388 50.6307V49.7102C114.345 49.7614 114.251 49.8082 114.107 49.8509C113.964 49.8906 113.8 49.9261 113.612 49.9574C113.428 49.9858 113.247 50.0114 113.071 50.0341C112.898 50.054 112.757 50.071 112.649 50.0852C112.388 50.1193 112.143 50.1747 111.916 50.2514C111.692 50.3253 111.51 50.4375 111.371 50.5881C111.234 50.7358 111.166 50.9375 111.166 51.1932C111.166 51.5426 111.295 51.8068 111.554 51.9858C111.815 52.1619 112.146 52.25 112.547 52.25ZM119.701 53.1364C119.155 53.1364 118.674 52.9986 118.256 52.723C117.838 52.4446 117.512 52.0526 117.276 51.5469C117.04 51.0384 116.922 50.4375 116.922 49.7443C116.922 49.0568 117.04 48.4602 117.276 47.9545C117.512 47.4489 117.84 47.0582 118.26 46.7827C118.681 46.5071 119.167 46.3693 119.718 46.3693C120.144 46.3693 120.48 46.4403 120.728 46.5824C120.978 46.7216 121.168 46.8807 121.299 47.0597C121.432 47.2358 121.536 47.3807 121.61 47.4943H121.695V44.2727H122.701V53H121.729V51.9943H121.61C121.536 52.1136 121.431 52.2642 121.294 52.446C121.158 52.625 120.963 52.7855 120.711 52.9276C120.458 53.0668 120.121 53.1364 119.701 53.1364ZM119.837 52.233C120.24 52.233 120.581 52.1278 120.86 51.9176C121.138 51.7045 121.35 51.4105 121.495 51.0355C121.64 50.6577 121.712 50.2216 121.712 49.7273C121.712 49.2386 121.641 48.8111 121.499 48.4446C121.357 48.0753 121.147 47.7884 120.868 47.5838C120.59 47.3764 120.246 47.2727 119.837 47.2727C119.411 47.2727 119.056 47.3821 118.772 47.6009C118.49 47.8168 118.279 48.1108 118.137 48.483C117.998 48.8523 117.928 49.267 117.928 49.7273C117.928 50.1932 117.999 50.6165 118.141 50.9972C118.286 51.375 118.499 51.6761 118.78 51.9006C119.064 52.1222 119.417 52.233 119.837 52.233ZM127.426 53.1364C126.796 53.1364 126.252 52.9972 125.794 52.7188C125.34 52.4375 124.989 52.0455 124.742 51.5426C124.498 51.0369 124.375 50.4489 124.375 49.7784C124.375 49.108 124.498 48.517 124.742 48.0057C124.989 47.4915 125.333 47.0909 125.773 46.804C126.216 46.5142 126.733 46.3693 127.324 46.3693C127.665 46.3693 128.002 46.4261 128.334 46.5398C128.667 46.6534 128.969 46.8381 129.242 47.0938C129.515 47.3466 129.732 47.6818 129.894 48.0994C130.056 48.517 130.137 49.0312 130.137 49.642V50.0682H125.091V49.1989H129.114C129.114 48.8295 129.04 48.5 128.892 48.2102C128.748 47.9205 128.54 47.6918 128.27 47.5241C128.003 47.3565 127.688 47.2727 127.324 47.2727C126.924 47.2727 126.577 47.3722 126.284 47.571C125.995 47.767 125.772 48.0227 125.615 48.3381C125.459 48.6534 125.381 48.9915 125.381 49.3523V49.9318C125.381 50.4261 125.466 50.8452 125.637 51.1889C125.81 51.5298 126.05 51.7898 126.357 51.9688C126.664 52.1449 127.02 52.233 127.426 52.233C127.691 52.233 127.929 52.196 128.142 52.1222C128.358 52.0455 128.544 51.9318 128.701 51.7812C128.857 51.6278 128.978 51.4375 129.063 51.2102L130.034 51.483C129.932 51.8125 129.76 52.1023 129.519 52.3523C129.277 52.5994 128.979 52.7926 128.624 52.9318C128.269 53.0682 127.87 53.1364 127.426 53.1364ZM131.667 53V46.4545H132.638V47.4773H132.723C132.86 47.1278 133.08 46.8565 133.384 46.6634C133.688 46.4673 134.053 46.3693 134.479 46.3693C134.911 46.3693 135.27 46.4673 135.557 46.6634C135.847 46.8565 136.073 47.1278 136.235 47.4773H136.303C136.471 47.1392 136.722 46.8707 137.057 46.6719C137.392 46.4702 137.794 46.3693 138.263 46.3693C138.848 46.3693 139.327 46.5526 139.699 46.919C140.071 47.2827 140.257 47.8494 140.257 48.6193V53H139.252V48.6193C139.252 48.1364 139.12 47.7912 138.855 47.5838C138.591 47.3764 138.28 47.2727 137.922 47.2727C137.462 47.2727 137.105 47.4119 136.853 47.6903C136.6 47.9659 136.473 48.3153 136.473 48.7386V53H135.451V48.517C135.451 48.1449 135.33 47.8452 135.088 47.6179C134.847 47.3878 134.536 47.2727 134.155 47.2727C133.894 47.2727 133.65 47.3423 133.422 47.4815C133.198 47.6207 133.016 47.8139 132.877 48.0611C132.74 48.3054 132.672 48.5881 132.672 48.9091V53H131.667ZM142.51 55.4545C142.339 55.4545 142.187 55.4403 142.054 55.4119C141.92 55.3864 141.828 55.3608 141.777 55.3352L142.032 54.4489C142.277 54.5114 142.493 54.5341 142.68 54.517C142.868 54.5 143.034 54.4162 143.179 54.2656C143.326 54.1179 143.461 53.8778 143.583 53.5455L143.771 53.0341L141.35 46.4545H142.441L144.248 51.6705H144.316L146.123 46.4545H147.214L144.436 53.9545C144.311 54.2926 144.156 54.5724 143.971 54.794C143.787 55.0185 143.572 55.1847 143.328 55.2926C143.086 55.4006 142.814 55.4545 142.51 55.4545ZM153.996 48.6364C153.996 48.1705 154.11 47.7457 154.337 47.3622C154.564 46.9787 154.87 46.6733 155.253 46.446C155.637 46.2187 156.061 46.1051 156.527 46.1051C156.931 46.1051 157.303 46.1918 157.644 46.3651C157.988 46.5384 158.272 46.7756 158.496 47.0767C158.721 47.375 158.86 47.7131 158.914 48.0909H157.882C157.826 47.7983 157.668 47.5597 157.409 47.375C157.151 47.1875 156.857 47.0938 156.527 47.0938C156.243 47.0938 155.985 47.1634 155.752 47.3026C155.519 47.4418 155.333 47.6278 155.194 47.8608C155.054 48.0937 154.985 48.3523 154.985 48.6364C154.985 48.9205 155.054 49.179 155.194 49.4119C155.333 49.6449 155.519 49.831 155.752 49.9702C155.985 50.1094 156.243 50.179 156.527 50.179C156.857 50.179 157.135 50.0866 157.363 49.902C157.593 49.7145 157.738 49.4744 157.797 49.1818H158.828C158.775 49.5597 158.642 49.8991 158.432 50.2003C158.222 50.4986 157.952 50.7344 157.623 50.9077C157.296 51.081 156.931 51.1676 156.527 51.1676C156.061 51.1676 155.637 51.054 155.253 50.8267C154.87 50.5994 154.564 50.294 154.337 49.9105C154.11 49.527 153.996 49.1023 153.996 48.6364ZM156.485 53.1364C155.865 53.1364 155.283 53.0199 154.738 52.7869C154.195 52.554 153.716 52.2315 153.301 51.8196C152.89 51.4048 152.566 50.9261 152.33 50.3835C152.097 49.8409 151.982 49.2585 151.985 48.6364C151.988 48.0142 152.105 47.4318 152.338 46.8892C152.574 46.3466 152.898 45.8693 153.31 45.4574C153.722 45.0426 154.199 44.7187 154.742 44.4858C155.284 44.2528 155.865 44.1364 156.485 44.1364C157.107 44.1364 157.689 44.2528 158.232 44.4858C158.777 44.7187 159.255 45.0426 159.664 45.4574C160.076 45.8693 160.398 46.3466 160.631 46.8892C160.864 47.4318 160.982 48.0142 160.985 48.6364C160.988 49.2585 160.873 49.8409 160.64 50.3835C160.407 50.9261 160.084 51.4048 159.672 51.8196C159.26 52.2315 158.782 52.554 158.236 52.7869C157.691 53.0199 157.107 53.1364 156.485 53.1364ZM156.485 52.1477C156.971 52.1477 157.426 52.0568 157.853 51.875C158.279 51.6932 158.652 51.4418 158.973 51.1207C159.294 50.7997 159.546 50.4276 159.728 50.0043C159.909 49.5781 159.999 49.1236 159.996 48.6406C159.993 48.1548 159.901 47.6989 159.719 47.2727C159.537 46.8466 159.286 46.473 158.965 46.152C158.644 45.831 158.272 45.5795 157.848 45.3977C157.425 45.2159 156.971 45.125 156.485 45.125C156.002 45.125 155.549 45.2159 155.125 45.3977C154.702 45.5795 154.33 45.8324 154.009 46.1562C153.688 46.4773 153.435 46.8509 153.25 47.277C153.069 47.7003 152.976 48.1548 152.973 48.6406C152.971 49.1207 153.06 49.5739 153.242 50C153.424 50.4233 153.675 50.7955 153.996 51.1165C154.32 51.4375 154.694 51.6903 155.117 51.875C155.543 52.0568 155.999 52.1477 156.485 52.1477ZM166.255 53V52.233L169.136 49.0795C169.474 48.7102 169.752 48.3892 169.971 48.1165C170.19 47.8409 170.352 47.5824 170.457 47.3409C170.565 47.0966 170.619 46.8409 170.619 46.5739C170.619 46.267 170.545 46.0014 170.397 45.777C170.252 45.5526 170.053 45.3793 169.8 45.2571C169.548 45.1349 169.263 45.0739 168.948 45.0739C168.613 45.0739 168.32 45.1435 168.07 45.2827C167.823 45.419 167.631 45.6108 167.495 45.858C167.362 46.1051 167.295 46.3949 167.295 46.7273H166.289C166.289 46.2159 166.407 45.767 166.643 45.3807C166.879 44.9943 167.2 44.6932 167.606 44.4773C168.015 44.2614 168.474 44.1534 168.982 44.1534C169.494 44.1534 169.947 44.2614 170.342 44.4773C170.737 44.6932 171.046 44.9844 171.271 45.3509C171.495 45.7173 171.607 46.125 171.607 46.5739C171.607 46.8949 171.549 47.2088 171.433 47.5156C171.319 47.8196 171.12 48.1591 170.836 48.5341C170.555 48.9062 170.164 49.3608 169.664 49.8977L167.704 51.9943V52.0625H171.761V53H166.255ZM176.367 53.1193C175.725 53.1193 175.178 52.9446 174.727 52.5952C174.275 52.2429 173.93 51.733 173.691 51.0653C173.452 50.3949 173.333 49.5852 173.333 48.6364C173.333 47.6932 173.452 46.8878 173.691 46.2202C173.933 45.5497 174.279 45.0384 174.731 44.6861C175.185 44.331 175.731 44.1534 176.367 44.1534C177.004 44.1534 177.548 44.331 177.999 44.6861C178.454 45.0384 178.8 45.5497 179.039 46.2202C179.281 46.8878 179.401 47.6932 179.401 48.6364C179.401 49.5852 179.282 50.3949 179.043 51.0653C178.805 51.733 178.46 52.2429 178.008 52.5952C177.556 52.9446 177.009 53.1193 176.367 53.1193ZM176.367 52.1818C177.004 52.1818 177.498 51.875 177.85 51.2614C178.202 50.6477 178.379 49.7727 178.379 48.6364C178.379 47.8807 178.298 47.2372 178.136 46.706C177.977 46.1747 177.746 45.7699 177.445 45.4915C177.147 45.2131 176.788 45.0739 176.367 45.0739C175.737 45.0739 175.244 45.3849 174.888 46.0071C174.533 46.6264 174.356 47.5028 174.356 48.6364C174.356 49.392 174.435 50.0341 174.594 50.5625C174.754 51.0909 174.982 51.4929 175.281 51.7685C175.582 52.044 175.944 52.1818 176.367 52.1818ZM181.021 53V52.233L183.901 49.0795C184.239 48.7102 184.518 48.3892 184.737 48.1165C184.955 47.8409 185.117 47.5824 185.222 47.3409C185.33 47.0966 185.384 46.8409 185.384 46.5739C185.384 46.267 185.31 46.0014 185.163 45.777C185.018 45.5526 184.819 45.3793 184.566 45.2571C184.313 45.1349 184.029 45.0739 183.714 45.0739C183.379 45.0739 183.086 45.1435 182.836 45.2827C182.589 45.419 182.397 45.6108 182.261 45.858C182.127 46.1051 182.06 46.3949 182.06 46.7273H181.055C181.055 46.2159 181.173 45.767 181.408 45.3807C181.644 44.9943 181.965 44.6932 182.371 44.4773C182.781 44.2614 183.239 44.1534 183.748 44.1534C184.259 44.1534 184.712 44.2614 185.107 44.4773C185.502 44.6932 185.812 44.9844 186.036 45.3509C186.261 45.7173 186.373 46.125 186.373 46.5739C186.373 46.8949 186.315 47.2088 186.198 47.5156C186.085 47.8196 185.886 48.1591 185.602 48.5341C185.32 48.9062 184.93 49.3608 184.43 49.8977L182.469 51.9943V52.0625H186.526V53H181.021ZM191.354 44.2727V53H190.298V45.3807H190.246L188.116 46.7955V45.7216L190.298 44.2727H191.354Z" fill="#2D3440"/>
<g clip-path="url(#clip0_31825_1030)">
<path d="M0 10.4163V12.4995H1.98768V10.4163H0Z" fill="#2D3440"/>
<path d="M9.41854 3.66311C8.15678 3.66311 7.13702 4.236 6.4975 5.06932H6.42836V0H4.78638V12.4997H6.42836V8.21161C6.42836 6.4929 7.49999 5.26029 9.07286 5.26029C10.5593 5.26029 11.4235 6.37138 11.4235 7.86439V12.4997H13.0655V7.56926C13.0655 5.19084 11.5963 3.66311 9.41854 3.66311Z" fill="#2D3440"/>
<path d="M21.5252 3.90628H17.6363V0.868164H15.9943V3.90628H14.4387V5.50347H15.9943V10.3471C15.9943 11.7359 16.7721 12.4998 18.1721 12.4998H21.5252V10.8853H18.5005C17.9474 10.8853 17.6363 10.5728 17.6363 10.0346V5.50347H21.5252V3.90628Z" fill="#2D3440"/>
<path d="M33.2548 3.68042C31.9411 3.68042 30.9388 4.32276 30.3856 5.34705H30.3338C29.8325 4.34014 28.8992 3.68042 27.6202 3.68042C26.4795 3.68042 25.6152 4.28804 25.0967 5.13873H25.0275V3.90612H23.4547V12.4996H25.0967V8.09004C25.0967 6.47549 25.9435 5.29497 27.2227 5.26025C28.4325 5.22553 29.1412 6.09356 29.1412 7.3956V12.4996H30.7832V7.95115C30.7832 6.02412 31.9239 5.26025 32.9091 5.26025C34.1017 5.26025 34.8105 6.09356 34.8105 7.3956V12.4996H36.4523V7.222C36.4523 5.13873 35.277 3.68042 33.2548 3.68042Z" fill="#2D3440"/>
<path d="M38.6776 10.2775C38.6776 11.6837 39.4727 12.4997 40.9418 12.4997H42.5665V10.9025H41.1837C40.6306 10.9025 40.3194 10.59 40.3194 10.0518V0H38.6776V10.2775Z" fill="#2D3440"/>
<path d="M23.3752 15.9364H23.306C22.6653 15.0734 21.6266 14.4694 20.2413 14.4521C17.6959 14.4176 15.8778 16.2988 15.8778 18.9566C15.8778 21.6318 17.7305 23.513 20.2239 23.4785C21.6437 23.4611 22.6653 22.8226 23.306 21.9078H23.3752V23.2367H25.003V14.6937H23.3752V15.9364ZM20.4663 21.8907C18.6656 21.8907 17.5228 20.5789 17.5228 18.9566C17.5228 17.3343 18.6656 16.0227 20.4663 16.0227C22.2152 16.0227 23.3581 17.3343 23.3581 18.9566C23.3581 20.5618 22.2152 21.8907 20.4663 21.8907Z" fill="#2D3440"/>
<path d="M35.752 17.8003C35.3537 15.8673 33.6395 14.4521 31.3886 14.4521C28.6701 14.4521 26.8521 16.4369 26.8521 18.9567C26.8521 21.4764 28.6701 23.4785 31.3886 23.4785C33.6395 23.4785 35.3537 22.0287 35.752 20.0785H34.0378C33.6915 21.1658 32.6699 21.9078 31.4059 21.9078C29.6397 21.9078 28.4968 20.5789 28.4968 18.9567C28.4968 17.3343 29.6397 16.0227 31.4059 16.0227C32.7218 16.0227 33.6915 16.7993 34.0378 17.8003H35.752Z" fill="#2D3440"/>
<path d="M44.5459 15.9364H44.4766C43.836 15.0734 42.797 14.4694 41.4117 14.4521C38.8664 14.4176 37.0483 16.2988 37.0483 18.9566C37.0483 21.6318 38.9011 23.513 41.3944 23.4785C42.8143 23.4611 43.836 22.8226 44.4766 21.9078H44.5459V23.2367H46.1735V14.6937H44.5459V15.9364ZM41.6369 21.8907C39.836 21.8907 38.6933 20.5789 38.6933 18.9566C38.6933 17.3343 39.836 16.0227 41.6369 16.0227C43.3858 16.0227 44.5285 17.3343 44.5285 18.9566C44.5285 20.5618 43.3858 21.8907 41.6369 21.8907Z" fill="#2D3440"/>
<path d="M55.5201 16.0227H55.4509C54.8102 15.1079 53.7365 14.4694 52.3686 14.4521C49.8754 14.4176 48.0226 16.2988 48.0226 18.9739C48.0226 21.6317 49.8407 23.513 52.386 23.4785C53.7365 23.4611 54.8102 22.8571 55.4336 21.9942H55.5201V23.2367H57.1477V10.8105H55.5201V16.0227ZM52.6112 21.9078C50.8103 21.9078 49.6675 20.5963 49.6675 18.9739C49.6675 17.3516 50.8103 16.0399 52.6112 16.0399C54.3601 16.0399 55.5028 17.3688 55.5028 18.9739C55.5028 20.5963 54.3601 21.9078 52.6112 21.9078Z" fill="#2D3440"/>
<path d="M63.3449 14.4521C60.713 14.4521 58.9121 16.4714 58.9121 18.9739C58.9121 21.4074 60.6091 23.4785 63.3794 23.4785C65.388 23.4785 66.9984 22.3912 67.5699 20.5789H65.8555C65.4748 21.3902 64.557 21.9078 63.4488 21.9078C61.8905 21.9078 60.7822 20.8724 60.661 19.5435H67.743C67.968 16.6958 66.1846 14.4521 63.3449 14.4521ZM63.3102 16.0227C64.6781 16.0227 65.6998 16.8684 65.9595 18.0937H60.6957C60.938 16.8856 61.9597 16.0227 63.3102 16.0227Z" fill="#2D3440"/>
<path d="M79.4126 14.4695C78.0968 14.4695 77.0925 15.108 76.5384 16.1263H76.4863C75.9843 15.1253 75.0492 14.4695 73.7679 14.4695C72.6252 14.4695 71.7593 15.0735 71.2399 15.9192H71.1707V14.6938H69.595V23.2368H71.2399V18.8532C71.2399 17.2481 72.0884 16.0745 73.3698 16.04C74.5817 16.0055 75.2918 16.8684 75.2918 18.1628V23.2368H76.9367V18.7151C76.9367 16.7994 78.0794 16.04 79.0664 16.04C80.2611 16.04 80.971 16.8684 80.971 18.1628V23.2368H82.616V17.9902C82.616 15.9192 81.4385 14.4695 79.4126 14.4695Z" fill="#2D3440"/>
<path d="M88.5048 21.8732L85.5611 14.6936H83.743L87.6563 24.0479L87.6391 24.0824C87.362 24.7899 87.0503 25.0488 86.2884 25.0488H84.2626V26.6883H86.2884C87.7775 26.6883 88.574 26.0153 89.1281 24.5655L92.9029 14.6936H91.2232L88.5048 21.8732Z" fill="#2D3440"/>
</g>
<defs>
<clipPath id="clip0_31825_1030">
<rect width="93" height="26.7107" fill="white"/>
</clipPath>
</defs>
</svg>
