<svg xmlns="http://www.w3.org/2000/svg" width="28" height="28" fill="none" viewBox="0 0 28 28"><rect width="26" height="26" x="1" y="1" stroke="#FCFCFC" stroke-opacity=".3" stroke-width="2" rx="13"/><path fill="#FCFCFC" d="m16.004 13.791-2.808-1.31c-.245-.114-.446.014-.446.285v2.468c0 .271.201.399.446.285l2.807-1.31c.246-.115.246-.303 0-.418ZM14 2C7.372 2 2 7.372 2 14s5.372 12 12 12 12-5.372 12-12S20.628 2 14 2Zm0 16.875c-6.143 0-6.25-.554-6.25-4.875S7.857 9.125 14 9.125c6.142 0 6.25.554 6.25 4.875s-.108 4.875-6.25 4.875Z"/></svg>